<svg width="284" height="288" viewBox="0 0 284 288" fill="none" xmlns="http://www.w3.org/2000/svg">
<path d="M142 0C112.554 -3.56086e-07 83.8362 9.283 59.8221 26.564C35.808 43.8449 17.6855 68.269 7.96326 96.4552C-1.759 124.641 -2.60009 155.195 5.55643 183.888C13.713 212.58 30.4636 237.991 53.4896 256.604C76.5156 275.217 104.678 286.11 134.078 287.776C163.478 289.442 192.662 281.798 217.589 265.902C242.517 250.007 261.955 226.646 273.212 199.054C284.47 171.461 286.991 141.002 280.425 111.893L142 144V0Z" fill="#3C7036"/>
<path d="M279 111.885C273.497 87.7435 261.884 65.4345 245.283 47.1133C228.681 28.792 207.653 15.0777 184.229 7.29517C160.805 -0.487333 135.777 -2.07495 111.563 2.68569C87.3488 7.44634 64.7674 18.3943 46 34.472L139.143 144L279 111.885Z" fill="#26D55B" fill-opacity="0.5"/>
</svg>